<mxfile host="app.diagrams.net" modified="2021-10-20T09:22:26.134Z" agent="5.0 (Macintosh; Intel Mac OS X 10_15_7) AppleWebKit/537.36 (KHTML, like Gecko) Chrome/86.0.4240.193 Safari/537.36" etag="vlTdbBT_W_x1zgHGhS-R" version="15.5.6" type="github">
  <diagram id="sk32VB0jwKw39HB99RIV" name="Page-1">
    <mxGraphModel dx="1426" dy="771" grid="1" gridSize="10" guides="1" tooltips="1" connect="1" arrows="1" fold="1" page="1" pageScale="1" pageWidth="827" pageHeight="1169" math="0" shadow="0">
      <root>
        <mxCell id="0" />
        <mxCell id="1" parent="0" />
        <mxCell id="QXTMYaVu3Deh50NWdAdY-1" value="c_id" style="text;html=1;align=center;verticalAlign=middle;resizable=0;points=[];autosize=1;strokeColor=none;fillColor=none;" vertex="1" parent="1">
          <mxGeometry x="360" y="200" width="40" height="20" as="geometry" />
        </mxCell>
        <mxCell id="QXTMYaVu3Deh50NWdAdY-2" value="c_relation_id" style="text;html=1;align=center;verticalAlign=middle;resizable=0;points=[];autosize=1;strokeColor=none;fillColor=none;" vertex="1" parent="1">
          <mxGeometry x="570" y="200" width="80" height="20" as="geometry" />
        </mxCell>
        <mxCell id="QXTMYaVu3Deh50NWdAdY-3" value="&lt;span style=&quot;text-align: left&quot;&gt;c_operation_type&lt;/span&gt;" style="text;html=1;align=center;verticalAlign=middle;resizable=0;points=[];autosize=1;strokeColor=none;fillColor=none;" vertex="1" parent="1">
          <mxGeometry x="442" y="200" width="110" height="20" as="geometry" />
        </mxCell>
        <mxCell id="QXTMYaVu3Deh50NWdAdY-4" value="冻结记录" style="text;html=1;align=center;verticalAlign=middle;resizable=0;points=[];autosize=1;strokeColor=none;fillColor=none;" vertex="1" parent="1">
          <mxGeometry x="200" y="250" width="60" height="20" as="geometry" />
        </mxCell>
        <mxCell id="QXTMYaVu3Deh50NWdAdY-5" value="对应的解冻记录" style="text;html=1;align=center;verticalAlign=middle;resizable=0;points=[];autosize=1;strokeColor=none;fillColor=none;" vertex="1" parent="1">
          <mxGeometry x="180" y="330" width="100" height="20" as="geometry" />
        </mxCell>
        <mxCell id="QXTMYaVu3Deh50NWdAdY-6" style="edgeStyle=none;rounded=0;orthogonalLoop=1;jettySize=auto;html=1;exitX=0.5;exitY=1;exitDx=0;exitDy=0;entryX=0.5;entryY=0;entryDx=0;entryDy=0;" edge="1" parent="1" source="QXTMYaVu3Deh50NWdAdY-7" target="QXTMYaVu3Deh50NWdAdY-13">
          <mxGeometry relative="1" as="geometry" />
        </mxCell>
        <mxCell id="QXTMYaVu3Deh50NWdAdY-7" value="400" style="rounded=0;whiteSpace=wrap;html=1;fillColor=#dae8fc;strokeColor=#6c8ebf;" vertex="1" parent="1">
          <mxGeometry x="323.5" y="240" width="116" height="40" as="geometry" />
        </mxCell>
        <mxCell id="QXTMYaVu3Deh50NWdAdY-8" value="1" style="rounded=0;whiteSpace=wrap;html=1;fillColor=#dae8fc;strokeColor=#6c8ebf;" vertex="1" parent="1">
          <mxGeometry x="438.5" y="240" width="116" height="40" as="geometry" />
        </mxCell>
        <mxCell id="QXTMYaVu3Deh50NWdAdY-9" value="500" style="rounded=0;whiteSpace=wrap;html=1;fillColor=#dae8fc;strokeColor=#6c8ebf;" vertex="1" parent="1">
          <mxGeometry x="554.5" y="240" width="116" height="40" as="geometry" />
        </mxCell>
        <mxCell id="QXTMYaVu3Deh50NWdAdY-10" style="rounded=0;orthogonalLoop=1;jettySize=auto;html=1;exitX=0.5;exitY=0;exitDx=0;exitDy=0;entryX=0.5;entryY=1;entryDx=0;entryDy=0;" edge="1" parent="1" source="QXTMYaVu3Deh50NWdAdY-11" target="QXTMYaVu3Deh50NWdAdY-9">
          <mxGeometry relative="1" as="geometry" />
        </mxCell>
        <mxCell id="QXTMYaVu3Deh50NWdAdY-11" value="500" style="rounded=0;whiteSpace=wrap;html=1;fillColor=#ffe6cc;strokeColor=#d79b00;" vertex="1" parent="1">
          <mxGeometry x="323.5" y="320" width="116" height="40" as="geometry" />
        </mxCell>
        <mxCell id="QXTMYaVu3Deh50NWdAdY-12" value="2" style="rounded=0;whiteSpace=wrap;html=1;fillColor=#ffe6cc;strokeColor=#d79b00;" vertex="1" parent="1">
          <mxGeometry x="438.5" y="320" width="116" height="40" as="geometry" />
        </mxCell>
        <mxCell id="QXTMYaVu3Deh50NWdAdY-13" value="400" style="rounded=0;whiteSpace=wrap;html=1;fillColor=#ffe6cc;strokeColor=#d79b00;" vertex="1" parent="1">
          <mxGeometry x="554.5" y="320" width="116" height="40" as="geometry" />
        </mxCell>
        <mxCell id="QXTMYaVu3Deh50NWdAdY-14" value="xxx" style="rounded=0;whiteSpace=wrap;html=1;fillColor=#dae8fc;strokeColor=#6c8ebf;" vertex="1" parent="1">
          <mxGeometry x="670.5" y="240" width="116" height="40" as="geometry" />
        </mxCell>
        <mxCell id="QXTMYaVu3Deh50NWdAdY-15" value="111" style="rounded=0;whiteSpace=wrap;html=1;fillColor=#ffe6cc;strokeColor=#d79b00;" vertex="1" parent="1">
          <mxGeometry x="670.5" y="320" width="116" height="40" as="geometry" />
        </mxCell>
        <mxCell id="QXTMYaVu3Deh50NWdAdY-16" value="&lt;span style=&quot;color: rgba(0 , 0 , 0 , 0) ; font-family: monospace ; font-size: 0px&quot;&gt;%3CmxGraphModel%3E%3Croot%3E%3CmxCell%20id%3D%220%22%2F%3E%3CmxCell%20id%3D%221%22%20parent%3D%220%22%2F%3E%3CmxCell%20id%3D%222%22%20value%3D%22c_target_code%22%20style%3D%22text%3Bhtml%3D1%3Balign%3Dcenter%3BverticalAlign%3Dmiddle%3Bresizable%3D0%3Bpoints%3D%5B%5D%3Bautosize%3D1%3BstrokeColor%3Dnone%3BfillColor%3Dnone%3B%22%20vertex%3D%221%22%20parent%3D%221%22%3E%3CmxGeometry%20x%3D%22965%22%20y%3D%22120%22%20width%3D%2290%22%20height%3D%2220%22%20as%3D%22geometry%22%2F%3E%3C%2FmxCell%3E%3C%2Froot%3E%3C%2FmxGraphModel%3E&lt;/span&gt;" style="text;html=1;align=center;verticalAlign=middle;resizable=0;points=[];autosize=1;strokeColor=none;fillColor=none;" vertex="1" parent="1">
          <mxGeometry x="718.5" y="200" width="20" height="20" as="geometry" />
        </mxCell>
        <mxCell id="QXTMYaVu3Deh50NWdAdY-34" style="edgeStyle=orthogonalEdgeStyle;rounded=0;orthogonalLoop=1;jettySize=auto;html=1;exitX=0.5;exitY=0;exitDx=0;exitDy=0;entryX=0.5;entryY=0;entryDx=0;entryDy=0;" edge="1" parent="1" source="QXTMYaVu3Deh50NWdAdY-17" target="QXTMYaVu3Deh50NWdAdY-14">
          <mxGeometry relative="1" as="geometry" />
        </mxCell>
        <mxCell id="QXTMYaVu3Deh50NWdAdY-17" value="xxx" style="rounded=0;whiteSpace=wrap;html=1;fillColor=#dae8fc;strokeColor=#6c8ebf;" vertex="1" parent="1">
          <mxGeometry x="1090" y="150" width="116" height="40" as="geometry" />
        </mxCell>
        <mxCell id="QXTMYaVu3Deh50NWdAdY-35" style="edgeStyle=orthogonalEdgeStyle;rounded=0;orthogonalLoop=1;jettySize=auto;html=1;exitX=0.5;exitY=0;exitDx=0;exitDy=0;entryX=0.5;entryY=0;entryDx=0;entryDy=0;" edge="1" parent="1" source="QXTMYaVu3Deh50NWdAdY-18" target="QXTMYaVu3Deh50NWdAdY-29">
          <mxGeometry relative="1" as="geometry" />
        </mxCell>
        <mxCell id="QXTMYaVu3Deh50NWdAdY-47" value="相同" style="edgeLabel;html=1;align=center;verticalAlign=middle;resizable=0;points=[];" vertex="1" connectable="0" parent="QXTMYaVu3Deh50NWdAdY-35">
          <mxGeometry x="0.1632" relative="1" as="geometry">
            <mxPoint as="offset" />
          </mxGeometry>
        </mxCell>
        <mxCell id="QXTMYaVu3Deh50NWdAdY-18" value="1" style="rounded=0;whiteSpace=wrap;html=1;fillColor=#dae8fc;strokeColor=#6c8ebf;" vertex="1" parent="1">
          <mxGeometry x="1205" y="150" width="116" height="40" as="geometry" />
        </mxCell>
        <mxCell id="QXTMYaVu3Deh50NWdAdY-19" value="100000" style="rounded=0;whiteSpace=wrap;html=1;fillColor=#dae8fc;strokeColor=#6c8ebf;" vertex="1" parent="1">
          <mxGeometry x="1321" y="150" width="116" height="40" as="geometry" />
        </mxCell>
        <mxCell id="QXTMYaVu3Deh50NWdAdY-21" value="t_deposit_action_freeze表" style="text;whiteSpace=wrap;html=1;" vertex="1" parent="1">
          <mxGeometry x="460" y="80" width="150" height="30" as="geometry" />
        </mxCell>
        <mxCell id="QXTMYaVu3Deh50NWdAdY-22" value="t_deposit_freeze_summary_detail表" style="text;html=1;align=center;verticalAlign=middle;resizable=0;points=[];autosize=1;strokeColor=none;fillColor=none;" vertex="1" parent="1">
          <mxGeometry x="1155" y="70" width="210" height="20" as="geometry" />
        </mxCell>
        <mxCell id="QXTMYaVu3Deh50NWdAdY-24" value="c_target_code" style="text;html=1;align=center;verticalAlign=middle;resizable=0;points=[];autosize=1;strokeColor=none;fillColor=none;" vertex="1" parent="1">
          <mxGeometry x="1095" y="110" width="90" height="20" as="geometry" />
        </mxCell>
        <mxCell id="QXTMYaVu3Deh50NWdAdY-25" value="c_target_type" style="text;html=1;align=center;verticalAlign=middle;resizable=0;points=[];autosize=1;strokeColor=none;fillColor=none;" vertex="1" parent="1">
          <mxGeometry x="1215" y="110" width="90" height="20" as="geometry" />
        </mxCell>
        <mxCell id="QXTMYaVu3Deh50NWdAdY-26" value="c_auction_id" style="text;html=1;align=center;verticalAlign=middle;resizable=0;points=[];autosize=1;strokeColor=none;fillColor=none;" vertex="1" parent="1">
          <mxGeometry x="1330" y="110" width="80" height="20" as="geometry" />
        </mxCell>
        <mxCell id="QXTMYaVu3Deh50NWdAdY-27" value="AAA" style="rounded=0;whiteSpace=wrap;html=1;fillColor=#dae8fc;strokeColor=#6c8ebf;" vertex="1" parent="1">
          <mxGeometry x="1437" y="150" width="116" height="40" as="geometry" />
        </mxCell>
        <mxCell id="QXTMYaVu3Deh50NWdAdY-28" value="c_license" style="text;html=1;align=center;verticalAlign=middle;resizable=0;points=[];autosize=1;strokeColor=none;fillColor=none;" vertex="1" parent="1">
          <mxGeometry x="1460" y="110" width="70" height="20" as="geometry" />
        </mxCell>
        <mxCell id="QXTMYaVu3Deh50NWdAdY-29" value="1" style="rounded=0;whiteSpace=wrap;html=1;fillColor=#dae8fc;strokeColor=#6c8ebf;" vertex="1" parent="1">
          <mxGeometry x="786.5" y="240" width="116" height="40" as="geometry" />
        </mxCell>
        <mxCell id="QXTMYaVu3Deh50NWdAdY-30" value="100000" style="rounded=0;whiteSpace=wrap;html=1;fillColor=#dae8fc;strokeColor=#6c8ebf;" vertex="1" parent="1">
          <mxGeometry x="901.5" y="240" width="116" height="40" as="geometry" />
        </mxCell>
        <mxCell id="QXTMYaVu3Deh50NWdAdY-31" value="c_target_code" style="text;html=1;align=center;verticalAlign=middle;resizable=0;points=[];autosize=1;strokeColor=none;fillColor=none;" vertex="1" parent="1">
          <mxGeometry x="683.5" y="200" width="90" height="20" as="geometry" />
        </mxCell>
        <mxCell id="QXTMYaVu3Deh50NWdAdY-32" value="c_target_type" style="text;html=1;align=center;verticalAlign=middle;resizable=0;points=[];autosize=1;strokeColor=none;fillColor=none;" vertex="1" parent="1">
          <mxGeometry x="799.5" y="200" width="90" height="20" as="geometry" />
        </mxCell>
        <mxCell id="QXTMYaVu3Deh50NWdAdY-33" value="c_auction_id&lt;br&gt;" style="text;html=1;align=center;verticalAlign=middle;resizable=0;points=[];autosize=1;strokeColor=none;fillColor=none;" vertex="1" parent="1">
          <mxGeometry x="920.5" y="200" width="80" height="20" as="geometry" />
        </mxCell>
        <mxCell id="QXTMYaVu3Deh50NWdAdY-37" value="xxx" style="rounded=0;whiteSpace=wrap;html=1;fillColor=#dae8fc;strokeColor=#6c8ebf;" vertex="1" parent="1">
          <mxGeometry x="1090" y="190" width="116" height="40" as="geometry" />
        </mxCell>
        <mxCell id="QXTMYaVu3Deh50NWdAdY-38" value="1" style="rounded=0;whiteSpace=wrap;html=1;fillColor=#dae8fc;strokeColor=#6c8ebf;" vertex="1" parent="1">
          <mxGeometry x="1205" y="190" width="116" height="40" as="geometry" />
        </mxCell>
        <mxCell id="QXTMYaVu3Deh50NWdAdY-39" value="100001" style="rounded=0;whiteSpace=wrap;html=1;fillColor=#dae8fc;strokeColor=#6c8ebf;" vertex="1" parent="1">
          <mxGeometry x="1321" y="190" width="116" height="40" as="geometry" />
        </mxCell>
        <mxCell id="QXTMYaVu3Deh50NWdAdY-40" value="BBB" style="rounded=0;whiteSpace=wrap;html=1;fillColor=#dae8fc;strokeColor=#6c8ebf;" vertex="1" parent="1">
          <mxGeometry x="1437" y="190" width="116" height="40" as="geometry" />
        </mxCell>
        <mxCell id="QXTMYaVu3Deh50NWdAdY-41" value="xxx" style="rounded=0;whiteSpace=wrap;html=1;fillColor=#dae8fc;strokeColor=#6c8ebf;" vertex="1" parent="1">
          <mxGeometry x="1090" y="230" width="116" height="40" as="geometry" />
        </mxCell>
        <mxCell id="QXTMYaVu3Deh50NWdAdY-42" value="1" style="rounded=0;whiteSpace=wrap;html=1;fillColor=#dae8fc;strokeColor=#6c8ebf;" vertex="1" parent="1">
          <mxGeometry x="1205" y="230" width="116" height="40" as="geometry" />
        </mxCell>
        <mxCell id="QXTMYaVu3Deh50NWdAdY-43" value="100002" style="rounded=0;whiteSpace=wrap;html=1;fillColor=#dae8fc;strokeColor=#6c8ebf;" vertex="1" parent="1">
          <mxGeometry x="1321" y="230" width="116" height="40" as="geometry" />
        </mxCell>
        <mxCell id="QXTMYaVu3Deh50NWdAdY-44" value="CCC" style="rounded=0;whiteSpace=wrap;html=1;fillColor=#dae8fc;strokeColor=#6c8ebf;" vertex="1" parent="1">
          <mxGeometry x="1437" y="230" width="116" height="40" as="geometry" />
        </mxCell>
        <mxCell id="QXTMYaVu3Deh50NWdAdY-46" value="&lt;span&gt;和详情表第一条记录&lt;br&gt;的auction_id一样&lt;/span&gt;" style="text;html=1;align=center;verticalAlign=middle;resizable=0;points=[];autosize=1;strokeColor=none;fillColor=none;" vertex="1" parent="1">
          <mxGeometry x="900.5" y="300" width="120" height="30" as="geometry" />
        </mxCell>
      </root>
    </mxGraphModel>
  </diagram>
</mxfile>
